<mxfile host="app.diagrams.net" modified="2022-09-12T09:05:38.569Z" agent="5.0 (Macintosh; Intel Mac OS X 10_15_7) AppleWebKit/537.36 (KHTML, like Gecko) Chrome/105.0.0.0 Safari/537.36" etag="33SoCvDzQ9Ar0gkjLIK9" version="20.3.0" type="github">
  <diagram id="HT4mJJ-U9kb0Gk1hiPa1" name="第 1 页">
    <mxGraphModel dx="1022" dy="798" grid="1" gridSize="10" guides="1" tooltips="1" connect="1" arrows="1" fold="1" page="1" pageScale="1" pageWidth="1169" pageHeight="1654" math="0" shadow="0">
      <root>
        <mxCell id="0" />
        <mxCell id="1" parent="0" />
        <mxCell id="U_BhPxAP_51HDFBjj81S-32" value="" style="rounded=0;whiteSpace=wrap;html=1;shadow=1;dashed=1;sketch=0;strokeWidth=5;fontSize=26;fillColor=none;strokeColor=#000000;" vertex="1" parent="1">
          <mxGeometry x="325" y="190" width="635" height="310" as="geometry" />
        </mxCell>
        <mxCell id="U_BhPxAP_51HDFBjj81S-1" value="&lt;font style=&quot;font-size: 26px;&quot;&gt;V&lt;/font&gt;" style="rounded=1;whiteSpace=wrap;html=1;fillColor=#60a917;fontColor=#ffffff;strokeColor=#2D7600;shadow=1;sketch=0;strokeWidth=1;" vertex="1" parent="1">
          <mxGeometry x="110" y="220" width="70" height="60" as="geometry" />
        </mxCell>
        <mxCell id="U_BhPxAP_51HDFBjj81S-2" value="&lt;font style=&quot;font-size: 26px;&quot;&gt;V&lt;/font&gt;" style="rounded=1;whiteSpace=wrap;html=1;fillColor=#60a917;fontColor=#ffffff;strokeColor=#2D7600;shadow=1;sketch=0;strokeWidth=1;" vertex="1" parent="1">
          <mxGeometry x="220" y="220" width="70" height="60" as="geometry" />
        </mxCell>
        <mxCell id="U_BhPxAP_51HDFBjj81S-14" style="rounded=0;orthogonalLoop=1;jettySize=auto;html=1;strokeWidth=3;sketch=1;dashed=1;" edge="1" parent="1">
          <mxGeometry relative="1" as="geometry">
            <mxPoint x="419.2857142857142" y="280" as="sourcePoint" />
            <mxPoint x="545" y="390" as="targetPoint" />
          </mxGeometry>
        </mxCell>
        <mxCell id="U_BhPxAP_51HDFBjj81S-17" style="edgeStyle=none;rounded=0;orthogonalLoop=1;jettySize=auto;html=1;strokeWidth=3;exitX=1;exitY=1;exitDx=0;exitDy=0;sketch=1;dashed=1;" edge="1" parent="1">
          <mxGeometry relative="1" as="geometry">
            <mxPoint x="420" y="280" as="sourcePoint" />
            <mxPoint x="650" y="390" as="targetPoint" />
          </mxGeometry>
        </mxCell>
        <mxCell id="U_BhPxAP_51HDFBjj81S-18" style="edgeStyle=none;rounded=0;orthogonalLoop=1;jettySize=auto;html=1;strokeWidth=3;exitX=1;exitY=1;exitDx=0;exitDy=0;sketch=1;dashed=1;" edge="1" parent="1">
          <mxGeometry relative="1" as="geometry">
            <mxPoint x="420" y="280" as="sourcePoint" />
            <mxPoint x="770" y="390" as="targetPoint" />
          </mxGeometry>
        </mxCell>
        <mxCell id="U_BhPxAP_51HDFBjj81S-19" style="edgeStyle=none;rounded=0;orthogonalLoop=1;jettySize=auto;html=1;strokeWidth=3;exitX=1;exitY=1;exitDx=0;exitDy=0;sketch=1;dashed=1;" edge="1" parent="1">
          <mxGeometry relative="1" as="geometry">
            <mxPoint x="420" y="280" as="sourcePoint" />
            <mxPoint x="890" y="390" as="targetPoint" />
          </mxGeometry>
        </mxCell>
        <mxCell id="U_BhPxAP_51HDFBjj81S-4" value="&lt;b&gt;&lt;font style=&quot;font-size: 26px;&quot;&gt;V&lt;/font&gt;&lt;/b&gt;" style="rounded=1;whiteSpace=wrap;html=1;fillColor=#60a917;fontColor=#ffffff;strokeColor=#2D7600;shadow=1;sketch=0;" vertex="1" parent="1">
          <mxGeometry x="490" y="530" width="70" height="60" as="geometry" />
        </mxCell>
        <mxCell id="U_BhPxAP_51HDFBjj81S-7" value="&lt;font style=&quot;font-size: 26px;&quot;&gt;V&lt;/font&gt;" style="rounded=1;whiteSpace=wrap;html=1;fillColor=#60a917;fontColor=#ffffff;strokeColor=#2D7600;shadow=1;sketch=0;" vertex="1" parent="1">
          <mxGeometry x="640" y="530" width="70" height="60" as="geometry" />
        </mxCell>
        <mxCell id="U_BhPxAP_51HDFBjj81S-8" value="&lt;b&gt;&lt;font style=&quot;font-size: 26px;&quot;&gt;V&lt;/font&gt;&lt;/b&gt;" style="rounded=1;whiteSpace=wrap;html=1;fillColor=#60a917;fontColor=#ffffff;strokeColor=#2D7600;shadow=1;sketch=0;" vertex="1" parent="1">
          <mxGeometry x="510" y="400" width="70" height="60" as="geometry" />
        </mxCell>
        <mxCell id="U_BhPxAP_51HDFBjj81S-9" value="" style="rounded=1;whiteSpace=wrap;html=1;fillColor=none;fontColor=#ffffff;strokeColor=#B20000;shadow=1;sketch=0;dashed=1;strokeWidth=3;" vertex="1" parent="1">
          <mxGeometry x="620" y="400" width="70" height="60" as="geometry" />
        </mxCell>
        <mxCell id="U_BhPxAP_51HDFBjj81S-10" value="" style="rounded=1;whiteSpace=wrap;html=1;fillColor=none;fontColor=#ffffff;strokeColor=#B20000;shadow=1;sketch=0;strokeWidth=3;dashed=1;" vertex="1" parent="1">
          <mxGeometry x="740" y="400" width="70" height="60" as="geometry" />
        </mxCell>
        <mxCell id="U_BhPxAP_51HDFBjj81S-11" value="&lt;b&gt;&lt;font style=&quot;font-size: 26px;&quot;&gt;V&lt;/font&gt;&lt;/b&gt;" style="rounded=1;whiteSpace=wrap;html=1;fillColor=#60a917;fontColor=#ffffff;strokeColor=#2D7600;shadow=1;sketch=0;" vertex="1" parent="1">
          <mxGeometry x="860" y="400" width="70" height="60" as="geometry" />
        </mxCell>
        <mxCell id="U_BhPxAP_51HDFBjj81S-25" value="&lt;font style=&quot;font-size: 26px;&quot;&gt;V&lt;/font&gt;" style="rounded=1;whiteSpace=wrap;html=1;fillColor=#60a917;fontColor=#ffffff;strokeColor=#2D7600;shadow=1;sketch=0;strokeWidth=1;" vertex="1" parent="1">
          <mxGeometry x="480" y="220" width="70" height="60" as="geometry" />
        </mxCell>
        <mxCell id="U_BhPxAP_51HDFBjj81S-26" value="&lt;font style=&quot;font-size: 26px;&quot;&gt;V 2&lt;/font&gt;" style="rounded=1;whiteSpace=wrap;html=1;fillColor=#e51400;fontColor=#ffffff;strokeColor=#B20000;shadow=1;sketch=0;strokeWidth=1;" vertex="1" parent="1">
          <mxGeometry x="600" y="220" width="70" height="60" as="geometry" />
        </mxCell>
        <mxCell id="U_BhPxAP_51HDFBjj81S-27" value="&lt;b&gt;&lt;font style=&quot;font-size: 26px;&quot;&gt;V 1&lt;/font&gt;&lt;/b&gt;" style="rounded=1;whiteSpace=wrap;html=1;fillColor=#e51400;fontColor=#ffffff;strokeColor=#B20000;shadow=1;sketch=0;strokeWidth=1;" vertex="1" parent="1">
          <mxGeometry x="720" y="220" width="70" height="60" as="geometry" />
        </mxCell>
        <mxCell id="U_BhPxAP_51HDFBjj81S-28" value="&lt;b&gt;&lt;font style=&quot;font-size: 26px;&quot;&gt;V&lt;/font&gt;&lt;/b&gt;" style="rounded=1;whiteSpace=wrap;html=1;fillColor=#60a917;fontColor=#ffffff;strokeColor=#2D7600;shadow=1;sketch=0;strokeWidth=1;" vertex="1" parent="1">
          <mxGeometry x="840" y="220" width="70" height="60" as="geometry" />
        </mxCell>
        <mxCell id="U_BhPxAP_51HDFBjj81S-29" value="&lt;font style=&quot;font-size: 26px;&quot;&gt;V&lt;/font&gt;" style="rounded=1;whiteSpace=wrap;html=1;fillColor=#60a917;fontColor=#ffffff;strokeColor=#2D7600;shadow=1;sketch=0;strokeWidth=1;" vertex="1" parent="1">
          <mxGeometry x="230" y="530" width="70" height="60" as="geometry" />
        </mxCell>
        <mxCell id="U_BhPxAP_51HDFBjj81S-30" value="&lt;font style=&quot;font-size: 26px;&quot;&gt;V&lt;/font&gt;" style="rounded=1;whiteSpace=wrap;html=1;fillColor=#60a917;fontColor=#ffffff;strokeColor=#2D7600;shadow=1;sketch=0;strokeWidth=1;" vertex="1" parent="1">
          <mxGeometry x="110" y="530" width="70" height="60" as="geometry" />
        </mxCell>
        <mxCell id="U_BhPxAP_51HDFBjj81S-33" value="&lt;b&gt;&lt;font style=&quot;font-size: 32px;&quot;&gt;Compaction&lt;/font&gt;&lt;/b&gt;" style="text;html=1;align=center;verticalAlign=middle;resizable=0;points=[];autosize=1;strokeColor=none;fillColor=none;fontSize=26;" vertex="1" parent="1">
          <mxGeometry x="530" y="125" width="210" height="50" as="geometry" />
        </mxCell>
        <mxCell id="U_BhPxAP_51HDFBjj81S-39" value="" style="shape=image;html=1;verticalAlign=top;verticalLabelPosition=bottom;labelBackgroundColor=#ffffff;imageAspect=0;aspect=fixed;image=https://cdn2.iconfinder.com/data/icons/halloween-scarry-hand-drawn-black-1/257/24-halloween-tomb-tombstone-skeleton-128.png;rounded=1;shadow=1;dashed=1;sketch=0;strokeColor=#FF0000;strokeWidth=3;fontSize=36;fillColor=none;" vertex="1" parent="1">
          <mxGeometry x="330.5" y="195" width="109" height="109" as="geometry" />
        </mxCell>
        <mxCell id="U_BhPxAP_51HDFBjj81S-40" value="" style="shape=image;html=1;verticalAlign=top;verticalLabelPosition=bottom;labelBackgroundColor=#ffffff;imageAspect=0;aspect=fixed;image=https://cdn2.iconfinder.com/data/icons/halloween-scarry-hand-drawn-black-1/257/24-halloween-tomb-tombstone-skeleton-128.png;rounded=1;shadow=1;dashed=1;sketch=0;strokeColor=#FF0000;strokeWidth=3;fontSize=36;fillColor=none;" vertex="1" parent="1">
          <mxGeometry x="340" y="507.5" width="109" height="109" as="geometry" />
        </mxCell>
      </root>
    </mxGraphModel>
  </diagram>
</mxfile>
